HIERARCHY
ROOT Hips
{
	OFFSET 0.000000 0.000000 0.000000 
	CHANNELS 6 Xposition Yposition Zposition Yrotation Zrotation Xrotation 
	JOINT Lumbar
	{
		OFFSET 0.000000 0.000000 0.000000 
		CHANNELS 3 Zrotation Xrotation Yrotation
		JOINT Neck
		{
			OFFSET 0.000000 0.445665 0.000000 
			CHANNELS 3 Zrotation Xrotation Yrotation
			End Site
			{
				OFFSET 0.000000 0.227535 0.000000 
			}
		}
		JOINT RightShoulder
		{
			OFFSET 0.019635 0.377685 0.194865 
			CHANNELS 3 Zrotation Xrotation Yrotation
			JOINT RightElbow
			{
				OFFSET 0.000000 -0.243375 0.000000 
				CHANNELS 2 Zrotation Yrotation
				JOINT RightWrist
				{
					OFFSET 0.000000 -0.264825 0.000000 
					CHANNELS 2 Zrotation Xrotation
					End Site
					{
						OFFSET 0.006600 -0.176220 0.000990 
					}
				}
			}
		}
		JOINT LeftShoulder
		{
			OFFSET 0.019635 0.377685 -0.194865 
			CHANNELS 3 Zrotation Xrotation Yrotation
			JOINT LeftElbow
			{
				OFFSET 0.000000 -0.243375 0.000000 
				CHANNELS 2 Zrotation Yrotation
				JOINT LeftWrist
				{
					OFFSET 0.000000 -0.264825 0.000000 
					CHANNELS 2 Zrotation Xrotation
					End Site
					{
						OFFSET 0.006600 -0.176220 -0.000990 
					}
				}
			}
		}
	}
	JOINT RightHip
	{
		OFFSET 0.052140 -0.069960 0.075570 
		CHANNELS 3 Zrotation Xrotation Yrotation
		JOINT RightKnee
		{
			OFFSET 0.000000 -0.402270 0.000000 
			CHANNELS 1 Zrotation
			JOINT RightAnkle
			{
				OFFSET 0.000000 -0.404085 0.000000 
				CHANNELS 3 Zrotation Xrotation Yrotation
				End Site
				{
					OFFSET 0.204105 -0.089430 0.008415 
				}
			}
		}
	}
	JOINT LeftHip
	{
		OFFSET 0.052140 -0.069960 -0.075570 
		CHANNELS 3 Zrotation Xrotation Yrotation
		JOINT LeftKnee
		{
			OFFSET 0.000000 -0.402270 0.000000 
			CHANNELS 1 Zrotation
			JOINT LeftAnkle
			{
				OFFSET 0.000000 -0.404085 0.000000 
				CHANNELS 3 Zrotation Xrotation Yrotation
				End Site
				{
					OFFSET 0.204105 -0.089430 -0.008415 
				}
			}
		}
	}
}
MOTION
Frames: 33
Frame Time: 0.02
-0.00083 -0.00021 0.00082 24.88447 -17.11309 -3.12119 42.06454 -0.86286 -6.55872 -12.11956 6.50368 -0.4181 -16.50092 -4.06302 -14.29141 20.27987 120.58349 12.88042 5.4055 -22.79784 9.75582 -8.03246 32.78479 -141.01249 26.09425 -7.06816 28.5951 -2.7814 -3.78687 -20.75488 -7.26899 -5.1412 -3.53517 33.85749 4.62876 0.6412 -24.76779 -6.61333 3.64731 2.58983
-0.00109 -0.00026 0.00064 24.78976 -17.08393 -3.10938 42.06605 -0.86337 -6.54603 -12.18917 6.52405 -0.41864 -16.53085 -4.06811 -14.25988 20.29767 120.58025 12.8862 5.40772 -22.85174 9.5026 -7.1897 32.80586 -140.05453 25.87766 -6.85881 28.57362 -2.83568 -3.95369 -20.75062 -7.25316 -5.14054 -3.52037 33.82567 4.62991 0.69945 -24.77891 -6.61631 3.65675 2.59086
-0.00134 -0.0003 0.00047 24.69503 -17.05489 -3.09758 42.0676 -0.86382 -6.5334 -12.25862 6.54444 -0.41919 -16.56063 -4.07323 -14.22847 20.31535 120.57698 12.89191 5.40993 -22.90582 9.25009 -6.34918 32.82734 -139.10095 25.66211 -6.65042 28.55228 -2.88985 -4.1199 -20.74636 -7.23735 -5.13985 -3.5056 33.79399 4.63107 0.75768 -24.79006 -6.6193 3.66619 2.5919
-0.0016 -0.00035 0.0003 24.60057 -17.02583 -3.0858 42.06911 -0.86432 -6.52075 -12.32802 6.56476 -0.41973 -16.59047 -4.07831 -14.19703 20.33309 120.57364 12.89764 5.41212 -22.9596 8.99762 -5.50889 32.84841 -138.14652 25.44636 -6.44183 28.53088 -2.94397 -4.28618 -20.74211 -7.22157 -5.13918 -3.49085 33.76228 4.63222 0.81578 -24.80116 -6.62227 3.6756 2.59292
-0.00185 -0.00039 0.00013 24.50623 -16.99662 -3.074 42.07056 -0.86491 -6.50804 -12.39756 6.58504 -0.42027 -16.62048 -4.08333 -14.16551 20.35095 120.57063 12.90353 5.41435 -23.01309 8.74455 -4.66671 32.86891 -137.18624 25.22915 -6.23198 28.50928 -2.99818 -4.45311 -20.73786 -7.20578 -5.13856 -3.47607 33.73041 4.63335 0.87385 -24.8122 -6.62526 3.68503 2.59394
-0.0021 -0.00044 -5e-05 24.41064 -16.96795 -3.06223 42.0723 -0.86505 -6.49558 -12.46682 6.60567 -0.42081 -16.64977 -4.08868 -14.13434 20.36828 120.567 12.90888 5.41654 -23.06845 8.49329 -3.82984 32.89245 -136.24623 25.01691 -6.02659 28.4885 -3.05228 -4.6178 -20.73358 -7.18992 -5.13772 -3.46131 33.69914 4.63454 0.9324 -24.82358 -6.62823 3.69449 2.59503
-0.00236 -0.00048 -0.00021 24.31776 -16.93823 -3.05041 42.07349 -0.86609 -6.4826 -12.53655 6.62554 -0.42136 -16.6805 -4.09337 -14.10238 20.38667 120.56385 12.91516 5.41869 -23.1199 8.23848 -2.98273 32.90979 -135.26906 24.7957 -5.81292 28.46611 -3.10653 -4.7868 -20.72937 -7.17423 -5.13732 -3.44654 33.66672 4.63565 0.98992 -24.83426 -6.63123 3.70386 2.59598
-0.00261 -0.00053 -0.00039 24.22224 -16.90947 -3.03863 42.07515 -0.86629 -6.47016 -12.60587 6.64617 -0.4219 -16.70987 -4.09864 -14.07137 20.40403 120.56167 12.92084 5.42113 -23.17511 7.98727 -2.14591 32.93298 -134.32143 24.58134 -5.60604 28.4452 -3.16067 -4.95187 -20.7251 -7.15838 -5.1365 -3.43177 33.6353 4.63679 1.04838 -24.84559 -6.63421 3.71333 2.59706
-0.00287 -0.00057 -0.00057 24.12396 -16.88192 -3.02691 42.07752 -0.8655 -6.45817 -12.67464 6.66751 -0.42244 -16.7377 -4.10472 -14.04066 20.42034 120.55505 12.92474 5.42293 -23.23439 7.73902 -1.31791 32.96289 -133.42854 24.38098 -5.41077 28.42611 -3.21457 -5.112 -20.72074 -7.14235 -5.13522 -3.41704 33.60531 4.63811 1.1081 -24.85773 -6.63714 3.72284 2.59825
-0.00311 -0.00062 -0.0007 24.04292 -16.84751 -3.01488 42.07619 -0.87053 -6.44292 -12.74646 6.68414 -0.423 -16.77475 -4.10648 -14.00563 20.44333 120.55706 12.93575 5.42541 -23.26866 7.46941 -0.4278 32.95287 -132.27671 24.11699 -5.15865 28.39659 -3.26953 -5.30012 -20.71682 -7.1274 -5.13675 -3.40219 33.56772 4.63883 1.16091 -24.86526 -6.64026 3.7319 2.59866
-0.00339 -0.00066 -0.00095 23.92468 -16.82749 -3.0035 42.08243 -0.86322 -6.43497 -12.81191 6.71108 -0.42352 -16.79211 -4.11712 -13.98136 20.45184 120.55169 12.93376 5.42835 -23.35667 7.24768 0.32389 33.02782 -131.6353 23.97638 -5.02012 28.38904 -3.32244 -5.42947 -20.71202 -7.11013 -5.13227 -3.38754 33.54578 4.64054 1.22804 -24.88248 -6.64302 3.74204 2.60083
-0.0038 -0.00068 -0.00156 23.70983 -16.84809 -2.99395 42.11171 -0.82205 -6.44398 -12.85929 6.76354 -0.42395 -16.75707 -4.15418 -13.97305 20.42333 120.43441 12.87917 5.41648 -23.58538 7.13482 0.75486 33.33169 -132.71311 24.27021 -5.25008 28.44279 -3.36822 -5.39356 -20.70468 -7.08669 -5.11169 -3.37378 33.57035 4.64695 1.33631 -24.92701 -6.6446 3.75409 2.60712
-0.00426 -0.0007 -0.0023 23.45649 -16.88292 -2.98501 42.14819 -0.76852 -6.46093 -12.9005 6.82685 -0.42434 -16.70207 -4.19978 -13.97774 20.3799 120.325 12.81443 5.40772 -23.86902 7.07378 1.03731 33.72104 -134.25123 24.67245 -5.58471 28.51842 -3.41226 -5.29926 -20.69651 -7.06088 -5.08502 -3.36016 33.60994 4.65382 1.45814 -24.98115 -6.64587 3.76746 2.61535
-0.0047 -0.00072 -0.003 23.2173 -16.91051 -2.97581 42.17988 -0.72054 -6.47621 -12.94481 6.88702 -0.42476 -16.65498 -4.24012 -13.98575 20.34138 120.27403 12.76567 5.4084 -24.1323 7.00431 1.3473 34.0749 -135.36199 24.95955 -5.83293 28.58338 -3.458 -5.23443 -20.68879 -7.03602 -5.0609 -3.34625 33.6404 4.65942 1.57312 -25.03041 -6.64738 3.78086 2.62316
-0.00515 -0.00074 -0.00362 22.99256 -16.94142 -2.96668 42.21792 -0.67261 -6.48318 -12.98745 6.93972 -0.42517 -16.61228 -4.28626 -13.95614 20.31023 119.9683 12.66983 5.36454 -24.37746 6.87295 1.81977 34.41745 -137.36668 25.51555 -6.24068 28.65145 -3.49968 -5.15759 -20.68067 -7.01167 -5.03768 -3.33331 33.68077 4.67019 1.6929 -25.08182 -6.64837 3.7914 2.62894
-0.00557 -0.00077 -0.00444 22.72809 -16.96874 -2.95738 42.24453 -0.62192 -6.50952 -13.03263 7.01045 -0.42557 -16.55628 -4.32238 -14.00633 20.26081 120.18621 12.66848 5.41258 -24.67187 6.88048 1.92601 34.80047 -137.65369 25.54894 -6.34681 28.71824 -3.54966 -5.09133 -20.67329 -6.98573 -5.01114 -3.31838 33.70384 4.6694 1.80354 -25.13108 -6.65049 3.80847 2.63952
-0.00589 -0.00081 -0.0057 22.36795 -16.98287 -2.94888 42.23675 -0.56444 -6.58625 -13.08187 7.129 -0.42594 -16.4635 -4.32873 -14.2869 20.15969 121.92047 12.9401 5.7266 -25.10066 7.27904 0.99281 35.30211 -132.77906 24.01052 -5.54328 28.77617 -3.62108 -5.07363 -20.66801 -6.9558 -4.97704 -3.29782 33.67706 4.64425 1.90619 -25.17154 -6.6549 3.84092 2.66195
-0.00617 -0.00086 -0.00716 21.96851 -16.99275 -2.9399 42.21727 -0.50513 -6.6827 -13.13482 7.26504 -0.4263 -16.35893 -4.32486 -14.64426 20.04182 124.16516 13.30495 6.13003 -25.57433 7.81212 -0.29272 35.83595 -126.21569 21.96105 -4.44188 28.83217 -3.70137 -5.06759 -20.66401 -6.92441 -4.93982 -3.27528 33.63195 4.60597 1.99568 -25.20961 -6.6606 3.88026 2.6893
-0.00646 -0.00091 -0.00856 21.58375 -17.00455 -2.93026 42.20403 -0.44796 -6.77054 -13.18889 7.3928 -0.42667 -16.26304 -4.32549 -14.95853 19.93456 126.13224 13.62135 6.48469 -26.02042 8.26995 -1.37335 36.33726 -120.6274 20.21302 -3.51062 28.88884 -3.77873 -5.05304 -20.65886 -6.89377 -4.90393 -3.25366 33.59427 4.56871 2.07723 -25.24912 -6.66636 3.91802 2.71506
-0.00678 -0.00095 -0.00984 21.21019 -17.01729 -2.92448 42.18778 -0.38437 -6.85603 -13.23048 7.52293 -0.42701 -16.15252 -4.32641 -15.31026 19.81327 128.30367 13.96477 6.87603 -26.50112 8.7879 -2.64417 36.91857 -114.18342 18.17832 -2.4371 28.94657 -3.85097 -5.05037 -20.65402 -6.86257 -4.86807 -3.23187 33.56126 4.55252 2.2165 -25.28747 -6.66956 3.94952 2.73825
-0.00704 -0.00102 -0.01141 20.80557 -17.0264 -2.91037 42.17414 -0.33448 -6.95241 -13.29956 7.65143 -0.42742 -16.06982 -4.32499 -15.59899 19.71849 130.15632 14.27207 7.20935 -26.91672 9.21354 -3.60566 37.33793 -109.10869 16.61585 -1.58667 29.0021 -3.93654 -5.02602 -20.65146 -6.83235 -4.83167 -3.21007 33.51356 4.48911 2.23413 -25.32754 -6.67821 3.99538 2.7678
-0.00714 -0.00111 -0.01371 20.31526 -17.0304 -2.8746 42.17671 -0.31784 -7.06173 -13.43869 7.77692 -0.42803 -16.06764 -4.3126 -15.7214 19.69277 131.13189 14.47611 7.38591 -27.16664 9.33738 -3.58293 37.32223 -108.27737 16.49925 -1.43454 29.04736 -4.05258 -4.94424 -20.63565 -6.80394 -4.79287 -3.18777 33.43335 4.30059 1.90428 -25.373 -6.70315 4.08156 2.81489
-0.00721 -0.00123 -0.01631 19.79685 -17.03008 -2.83012 42.18073 -0.31602 -7.18348 -13.60613 7.8989 -0.42873 -16.09361 -4.29938 -15.77313 19.69643 131.74955 14.63779 7.49707 -27.34461 9.36639 -3.24458 37.14146 -108.87026 16.87134 -1.51495 29.09252 -4.18293 -4.84029 -20.62774 -6.77679 -4.75389 -3.16565 33.33841 4.0648 1.45627 -25.42033 -6.73318 4.18141 2.86793
-0.00731 -0.00135 -0.01878 19.29798 -17.0291 -2.78896 42.1806 -0.31081 -7.30767 -13.76416 8.01884 -0.42937 -16.10652 -4.29121 -15.83929 19.69153 132.4414 14.80535 7.6205 -27.53872 9.44728 -3.07817 37.01863 -108.77716 17.0087 -1.4822 29.13903 -4.30899 -4.7424 -20.62624 -6.74993 -4.7163 -3.14416 33.24763 3.84906 1.07059 -25.46657 -6.75998 4.27356 2.91753
-0.00733 -0.00138 -0.02121 18.76986 -17.03907 -2.7509 42.19654 -0.29153 -7.3988 -13.90854 8.15531 -0.43 -16.12097 -4.26336 -15.98122 19.66377 133.50624 15.02957 7.81732 -27.80406 9.49438 -2.80206 36.95592 -108.79124 17.18367 -1.47064 29.17468 -4.42439 -4.65879 -20.57421 -6.71945 -4.67353 -3.11984 33.16631 3.63815 0.64348 -25.51324 -6.791 4.37261 2.97065
-0.00751 -0.00163 -0.0238 18.29559 -17.02526 -2.70381 42.1773 -0.30494 -7.56097 -14.08698 8.25559 -0.43077 -16.13799 -4.27595 -15.94955 19.69337 133.72551 15.1283 7.84883 -27.90369 9.58936 -2.67708 36.74487 -108.93949 17.40047 -1.47412 29.23961 -4.5673 -4.54386 -20.63978 -6.6967 -4.64096 -3.10118 33.06275 3.40707 0.28047 -25.5601 -6.81402 4.45998 3.01746
-0.00807 -0.00242 -0.02678 17.98488 -16.9471 -2.63889 42.07956 -0.40633 -7.91987 -14.36166 8.26321 -0.43124 -16.16535 -4.4045 -15.43792 19.8535 131.49324 14.85685 7.40225 -27.55991 9.82418 -3.02544 36.02971 -109.14113 17.63768 -1.4627 29.32923 -4.76492 -4.31492 -20.93824 -6.69659 -4.64156 -3.10092 32.89579 3.12389 0.07255 -25.60189 -6.81726 4.51597 3.04819
-0.0088 -0.00344 -0.02992 17.72803 -16.84535 -2.56461 41.94298 -0.53969 -8.34862 -14.66794 8.23362 -0.43197 -16.19316 -4.57303 -14.75688 20.07487 128.45501 14.46583 6.79765 -27.05217 10.11298 -3.53863 35.2008 -109.43108 17.89829 -1.45971 29.45939 -4.99275 -4.06117 -21.37144 -6.70414 -4.65152 -3.10586 32.70845 2.8237 -0.0586 -25.64476 -6.81171 4.55903 3.07188
-0.00949 -0.0044 -0.03298 17.44152 -16.75396 -2.49096 41.81164 -0.65784 -8.74346 -14.95377 8.21627 -0.43307 -16.2133 -4.7207 -14.16488 20.28108 125.92081 14.15217 6.29021 -26.62164 10.38624 -3.98888 34.50615 -109.66874 18.13454 -1.45411 29.60711 -5.21866 -3.84057 -21.80204 -6.70687 -4.65394 -3.10657 32.53374 2.53642 -0.18977 -25.69058 -6.80764 4.60506 3.09683
-0.01 -0.00519 -0.03606 17.17595 -16.66299 -2.43096 41.73233 -0.78021 -9.14965 -15.26629 8.21699 -0.43218 -16.26313 -4.87989 -13.51999 20.43241 122.80481 13.74242 5.67551 -26.1776 10.61712 -4.3792 33.43743 -110.00704 18.44482 -1.45156 29.60057 -5.39625 -3.52753 -21.98587 -6.7144 -4.67018 -3.11511 32.34279 2.2251 -0.46667 -25.72204 -6.81382 4.66335 3.12987
-0.01093 -0.00638 -0.03914 16.87983 -16.5668 -2.34211 41.53594 -0.90015 -9.5464 -15.53037 8.17324 -0.43543 -16.25439 -5.02436 -12.94542 20.71522 120.69883 13.50181 5.24504 -25.72325 10.95183 -4.93585 33.14776 -110.13747 18.60094 -1.44132 29.92787 -5.68016 -3.40057 -22.71496 -6.71487 -4.65994 -3.10867 32.18287 1.96106 -0.42729 -25.78352 -6.79719 4.69348 3.14472
-0.01299 -0.00874 -0.04225 16.48709 -16.44958 -2.16181 41.01972 -1.01364 -9.91905 -15.6534 7.99864 -0.4505 -16.05422 -5.12042 -12.61168 21.31952 121.70819 13.78354 5.38387 -25.28176 11.54472 -5.92732 34.82491 -109.6767 18.31734 -1.41045 31.13761 -6.26036 -3.80156 -24.91677 -6.68408 -4.57394 -3.05878 32.09495 1.82728 0.52786 -25.92805 -6.71386 4.64356 3.10725
-0.01545 -0.01148 -0.04535 16.0617 -16.32881 -1.95577 40.38718 -1.12157 -10.27624 -15.72702 7.7836 -0.46966 -15.80092 -5.20002 -12.35426 22.05818 123.7389 14.23422 5.70996 -24.83383 12.24177 -7.07913 37.32926 -108.99685 17.87694 -1.37013 32.6839 -6.94386 -4.38944 -27.65856 -6.64761 -4.46126 -2.99389 32.04037 1.74319 1.78798 -26.10225 -6.60898 4.56667 3.05235
